<mxfile host="app.diagrams.net" modified="2024-05-01T04:29:47.000Z" agent="Mozilla/5.0 (Windows NT 10.0; Win64; x64; rv:125.0) Gecko/20100101 Firefox/125.0" version="24.3.1" etag="-qD2cL0_kPZp-UgYAhd5" type="github">
  <diagram name="第 1 页" id="T15RsEVhsCTgL211F_5p">
    <mxGraphModel>
      <root>
        <mxCell id="0" />
        <mxCell id="1" parent="0" />
      </root>
    </mxGraphModel>
  </diagram>
</mxfile>
